<mxfile host="Electron" agent="Mozilla/5.0 (Macintosh; Intel Mac OS X 10_15_7) AppleWebKit/537.36 (KHTML, like Gecko) draw.io/26.2.15 Chrome/134.0.6998.205 Electron/35.2.1 Safari/537.36" version="26.2.15" pages="2">
  <diagram name="Multi-Agent Arch" id="ub4KsRptNqgLp7lkgXpW">
    <mxGraphModel dx="1306" dy="1139" grid="1" gridSize="10" guides="1" tooltips="1" connect="1" arrows="1" fold="1" page="1" pageScale="1" pageWidth="850" pageHeight="1100" math="0" shadow="0">
      <root>
        <mxCell id="0" />
        <mxCell id="1" parent="0" />
        <mxCell id="ASmS1fR-pAxJk7bQfhLH-20" style="edgeStyle=orthogonalEdgeStyle;rounded=0;orthogonalLoop=1;jettySize=auto;html=1;entryX=0.5;entryY=0;entryDx=0;entryDy=0;dashed=1;startArrow=classic;startFill=1;" parent="1" source="bR4ImRQM_lHo-FGBlh7m-5" target="ASmS1fR-pAxJk7bQfhLH-16" edge="1">
          <mxGeometry relative="1" as="geometry" />
        </mxCell>
        <mxCell id="bR4ImRQM_lHo-FGBlh7m-5" value="Agent Layer&lt;div&gt;(Remote)&lt;br&gt;&lt;div&gt;&lt;br&gt;&lt;/div&gt;&lt;div&gt;&lt;br&gt;&lt;/div&gt;&lt;div&gt;&lt;br&gt;&lt;/div&gt;&lt;div&gt;&lt;br&gt;&lt;/div&gt;&lt;div&gt;&lt;br&gt;&lt;/div&gt;&lt;div&gt;&lt;br&gt;&lt;/div&gt;&lt;/div&gt;" style="rounded=1;whiteSpace=wrap;html=1;dashed=1;" parent="1" vertex="1">
          <mxGeometry x="460" y="706" width="300" height="140" as="geometry" />
        </mxCell>
        <mxCell id="qNfc9r8m6Vnsijnfa4ap-8" style="edgeStyle=orthogonalEdgeStyle;rounded=0;orthogonalLoop=1;jettySize=auto;html=1;entryX=0.5;entryY=1;entryDx=0;entryDy=0;exitX=0.5;exitY=0;exitDx=0;exitDy=0;" parent="1" source="qNfc9r8m6Vnsijnfa4ap-5" target="qNfc9r8m6Vnsijnfa4ap-6" edge="1">
          <mxGeometry relative="1" as="geometry">
            <mxPoint x="420" y="100" as="sourcePoint" />
          </mxGeometry>
        </mxCell>
        <mxCell id="qNfc9r8m6Vnsijnfa4ap-2" value="Storage Layer&lt;div&gt;&lt;br&gt;&lt;/div&gt;&lt;div&gt;&lt;br&gt;&lt;/div&gt;&lt;div&gt;&lt;br&gt;&lt;/div&gt;&lt;div&gt;&lt;br&gt;&lt;/div&gt;&lt;div&gt;&lt;br&gt;&lt;/div&gt;&lt;div&gt;&lt;br&gt;&lt;/div&gt;&lt;div&gt;&lt;br&gt;&lt;/div&gt;&lt;div&gt;&lt;br&gt;&lt;/div&gt;&lt;div&gt;&lt;br&gt;&lt;/div&gt;&lt;div&gt;&lt;br&gt;&lt;/div&gt;&lt;div&gt;&lt;br&gt;&lt;/div&gt;&lt;div&gt;&lt;br&gt;&lt;/div&gt;&lt;div&gt;&lt;br&gt;&lt;/div&gt;" style="rounded=1;whiteSpace=wrap;html=1;" parent="1" vertex="1">
          <mxGeometry x="530" y="460" width="180" height="230" as="geometry" />
        </mxCell>
        <mxCell id="qNfc9r8m6Vnsijnfa4ap-33" style="edgeStyle=orthogonalEdgeStyle;rounded=0;orthogonalLoop=1;jettySize=auto;html=1;entryX=0.5;entryY=0;entryDx=0;entryDy=0;" parent="1" source="qNfc9r8m6Vnsijnfa4ap-5" target="qNfc9r8m6Vnsijnfa4ap-9" edge="1">
          <mxGeometry relative="1" as="geometry" />
        </mxCell>
        <mxCell id="qNfc9r8m6Vnsijnfa4ap-5" value="User Application" style="rounded=1;whiteSpace=wrap;html=1;" parent="1" vertex="1">
          <mxGeometry x="90" y="140" width="640" height="60" as="geometry" />
        </mxCell>
        <mxCell id="qNfc9r8m6Vnsijnfa4ap-7" style="edgeStyle=orthogonalEdgeStyle;rounded=0;orthogonalLoop=1;jettySize=auto;html=1;entryX=0.5;entryY=0;entryDx=0;entryDy=0;" parent="1" source="qNfc9r8m6Vnsijnfa4ap-6" target="qNfc9r8m6Vnsijnfa4ap-5" edge="1">
          <mxGeometry relative="1" as="geometry">
            <mxPoint x="420" y="100" as="targetPoint" />
          </mxGeometry>
        </mxCell>
        <mxCell id="qNfc9r8m6Vnsijnfa4ap-6" value="User" style="ellipse;whiteSpace=wrap;html=1;aspect=fixed;" parent="1" vertex="1">
          <mxGeometry x="370" y="20" width="80" height="80" as="geometry" />
        </mxCell>
        <mxCell id="qNfc9r8m6Vnsijnfa4ap-34" style="edgeStyle=orthogonalEdgeStyle;rounded=0;orthogonalLoop=1;jettySize=auto;html=1;entryX=0.5;entryY=1;entryDx=0;entryDy=0;" parent="1" source="qNfc9r8m6Vnsijnfa4ap-9" target="qNfc9r8m6Vnsijnfa4ap-5" edge="1">
          <mxGeometry relative="1" as="geometry" />
        </mxCell>
        <mxCell id="qNfc9r8m6Vnsijnfa4ap-42" style="edgeStyle=orthogonalEdgeStyle;rounded=0;orthogonalLoop=1;jettySize=auto;html=1;entryX=0;entryY=0.75;entryDx=0;entryDy=0;startArrow=classic;startFill=1;" parent="1" source="qNfc9r8m6Vnsijnfa4ap-9" target="qNfc9r8m6Vnsijnfa4ap-30" edge="1">
          <mxGeometry relative="1" as="geometry">
            <Array as="points">
              <mxPoint x="40" y="340" />
              <mxPoint x="40" y="955" />
            </Array>
          </mxGeometry>
        </mxCell>
        <mxCell id="qNfc9r8m6Vnsijnfa4ap-9" value="Orchestration Layer&lt;div&gt;&lt;br&gt;&lt;/div&gt;&lt;div&gt;&lt;br&gt;&lt;/div&gt;&lt;div&gt;&lt;br&gt;&lt;/div&gt;&lt;div&gt;&lt;br&gt;&lt;/div&gt;&lt;div&gt;&lt;br&gt;&lt;/div&gt;&lt;div&gt;&lt;br&gt;&lt;/div&gt;&lt;div&gt;&lt;br&gt;&lt;/div&gt;&lt;div&gt;&lt;br&gt;&lt;/div&gt;&lt;div&gt;&lt;br&gt;&lt;/div&gt;" style="rounded=1;whiteSpace=wrap;html=1;" parent="1" vertex="1">
          <mxGeometry x="90" y="240" width="640" height="170" as="geometry" />
        </mxCell>
        <mxCell id="qNfc9r8m6Vnsijnfa4ap-24" style="edgeStyle=orthogonalEdgeStyle;rounded=0;orthogonalLoop=1;jettySize=auto;html=1;exitX=0.778;exitY=0.983;exitDx=0;exitDy=0;entryX=0.25;entryY=0;entryDx=0;entryDy=0;exitPerimeter=0;startArrow=classic;startFill=1;" parent="1" source="qNfc9r8m6Vnsijnfa4ap-11" target="qNfc9r8m6Vnsijnfa4ap-2" edge="1">
          <mxGeometry relative="1" as="geometry">
            <Array as="points">
              <mxPoint x="410" y="430" />
              <mxPoint x="575" y="430" />
            </Array>
          </mxGeometry>
        </mxCell>
        <mxCell id="qNfc9r8m6Vnsijnfa4ap-47" style="edgeStyle=orthogonalEdgeStyle;rounded=0;orthogonalLoop=1;jettySize=auto;html=1;exitX=0.25;exitY=1;exitDx=0;exitDy=0;entryX=0.5;entryY=0;entryDx=0;entryDy=0;startArrow=classicThin;startFill=1;" parent="1" source="qNfc9r8m6Vnsijnfa4ap-11" target="qNfc9r8m6Vnsijnfa4ap-35" edge="1">
          <mxGeometry relative="1" as="geometry">
            <Array as="points">
              <mxPoint x="220" y="430" />
              <mxPoint x="185" y="430" />
            </Array>
          </mxGeometry>
        </mxCell>
        <mxCell id="qNfc9r8m6Vnsijnfa4ap-11" value="Orchestrator&lt;div&gt;(Semantic-Kernel)&lt;/div&gt;" style="rounded=0;whiteSpace=wrap;html=1;" parent="1" vertex="1">
          <mxGeometry x="130" y="280" width="360" height="60" as="geometry" />
        </mxCell>
        <mxCell id="qNfc9r8m6Vnsijnfa4ap-14" style="edgeStyle=orthogonalEdgeStyle;rounded=0;orthogonalLoop=1;jettySize=auto;html=1;entryX=1;entryY=0.25;entryDx=0;entryDy=0;startArrow=classic;startFill=1;" parent="1" source="qNfc9r8m6Vnsijnfa4ap-12" target="qNfc9r8m6Vnsijnfa4ap-11" edge="1">
          <mxGeometry relative="1" as="geometry" />
        </mxCell>
        <mxCell id="qNfc9r8m6Vnsijnfa4ap-12" value="Classifier&lt;div&gt;(NLU, SLM, LLM)&lt;/div&gt;" style="rounded=0;whiteSpace=wrap;html=1;" parent="1" vertex="1">
          <mxGeometry x="540" y="260" width="130" height="35" as="geometry" />
        </mxCell>
        <mxCell id="qNfc9r8m6Vnsijnfa4ap-15" value="Agent Layer&amp;nbsp;&lt;span style=&quot;background-color: transparent; color: light-dark(rgb(0, 0, 0), rgb(255, 255, 255));&quot;&gt;(Local)&lt;/span&gt;&lt;div&gt;&lt;div&gt;&lt;br&gt;&lt;/div&gt;&lt;div&gt;&lt;br&gt;&lt;/div&gt;&lt;div&gt;&lt;br&gt;&lt;/div&gt;&lt;div&gt;&lt;br&gt;&lt;/div&gt;&lt;div&gt;&lt;br&gt;&lt;/div&gt;&lt;div&gt;&lt;br&gt;&lt;/div&gt;&lt;/div&gt;&lt;div&gt;&lt;br&gt;&lt;/div&gt;&lt;div&gt;&lt;br&gt;&lt;/div&gt;&lt;div&gt;&lt;br&gt;&lt;/div&gt;&lt;div&gt;&lt;br&gt;&lt;/div&gt;" style="rounded=1;whiteSpace=wrap;html=1;" parent="1" vertex="1">
          <mxGeometry x="85" y="670" width="330" height="180" as="geometry" />
        </mxCell>
        <mxCell id="qNfc9r8m6Vnsijnfa4ap-16" value="Agent #1" style="rounded=0;whiteSpace=wrap;html=1;" parent="1" vertex="1">
          <mxGeometry x="110" y="790" width="130" height="48" as="geometry" />
        </mxCell>
        <mxCell id="qNfc9r8m6Vnsijnfa4ap-17" value="Agent #2" style="rounded=0;whiteSpace=wrap;html=1;" parent="1" vertex="1">
          <mxGeometry x="260" y="790" width="130" height="48" as="geometry" />
        </mxCell>
        <mxCell id="qNfc9r8m6Vnsijnfa4ap-18" value="Agent #3" style="rounded=0;whiteSpace=wrap;html=1;dashed=1;" parent="1" vertex="1">
          <mxGeometry x="470" y="760" width="130" height="60" as="geometry" />
        </mxCell>
        <mxCell id="qNfc9r8m6Vnsijnfa4ap-19" value="Agent #4" style="rounded=0;whiteSpace=wrap;html=1;dashed=1;" parent="1" vertex="1">
          <mxGeometry x="620" y="760" width="130" height="60" as="geometry" />
        </mxCell>
        <mxCell id="qNfc9r8m6Vnsijnfa4ap-20" value="&lt;font style=&quot;font-size: 8px;&quot;&gt;MCP Client&lt;/font&gt;" style="text;html=1;align=center;verticalAlign=middle;resizable=0;points=[];autosize=1;strokeColor=none;fillColor=none;" parent="1" vertex="1">
          <mxGeometry x="182" y="814" width="60" height="30" as="geometry" />
        </mxCell>
        <mxCell id="qNfc9r8m6Vnsijnfa4ap-21" value="&lt;font style=&quot;font-size: 8px;&quot;&gt;MCP Client&lt;/font&gt;" style="text;html=1;align=center;verticalAlign=middle;resizable=0;points=[];autosize=1;strokeColor=none;fillColor=none;" parent="1" vertex="1">
          <mxGeometry x="330" y="814" width="60" height="30" as="geometry" />
        </mxCell>
        <mxCell id="qNfc9r8m6Vnsijnfa4ap-22" value="&lt;font style=&quot;font-size: 8px;&quot;&gt;MCP Client&lt;/font&gt;" style="text;html=1;align=center;verticalAlign=middle;resizable=0;points=[];autosize=1;strokeColor=none;fillColor=none;" parent="1" vertex="1">
          <mxGeometry x="540" y="796" width="60" height="30" as="geometry" />
        </mxCell>
        <mxCell id="qNfc9r8m6Vnsijnfa4ap-23" value="&lt;font style=&quot;font-size: 8px;&quot;&gt;MCP Client&lt;/font&gt;" style="text;html=1;align=center;verticalAlign=middle;resizable=0;points=[];autosize=1;strokeColor=none;fillColor=none;" parent="1" vertex="1">
          <mxGeometry x="690" y="796" width="60" height="30" as="geometry" />
        </mxCell>
        <mxCell id="qNfc9r8m6Vnsijnfa4ap-28" value="Conversation History" style="rounded=0;whiteSpace=wrap;html=1;" parent="1" vertex="1">
          <mxGeometry x="550" y="500" width="140" height="50" as="geometry" />
        </mxCell>
        <mxCell id="qNfc9r8m6Vnsijnfa4ap-29" value="Agent State" style="rounded=0;whiteSpace=wrap;html=1;" parent="1" vertex="1">
          <mxGeometry x="550" y="560" width="140" height="50" as="geometry" />
        </mxCell>
        <mxCell id="qNfc9r8m6Vnsijnfa4ap-32" style="edgeStyle=orthogonalEdgeStyle;rounded=0;orthogonalLoop=1;jettySize=auto;html=1;entryX=0.5;entryY=1;entryDx=0;entryDy=0;exitX=0.5;exitY=0;exitDx=0;exitDy=0;startArrow=classic;startFill=1;" parent="1" source="qNfc9r8m6Vnsijnfa4ap-30" target="qNfc9r8m6Vnsijnfa4ap-15" edge="1">
          <mxGeometry relative="1" as="geometry" />
        </mxCell>
        <mxCell id="qNfc9r8m6Vnsijnfa4ap-36" style="edgeStyle=orthogonalEdgeStyle;rounded=0;orthogonalLoop=1;jettySize=auto;html=1;exitX=0;exitY=0.25;exitDx=0;exitDy=0;entryX=0;entryY=0.5;entryDx=0;entryDy=0;startArrow=classic;startFill=1;" parent="1" source="qNfc9r8m6Vnsijnfa4ap-30" target="qNfc9r8m6Vnsijnfa4ap-35" edge="1">
          <mxGeometry relative="1" as="geometry" />
        </mxCell>
        <mxCell id="qNfc9r8m6Vnsijnfa4ap-45" style="edgeStyle=orthogonalEdgeStyle;rounded=0;orthogonalLoop=1;jettySize=auto;html=1;exitX=0.5;exitY=1;exitDx=0;exitDy=0;entryX=0.5;entryY=0;entryDx=0;entryDy=0;" parent="1" source="qNfc9r8m6Vnsijnfa4ap-30" target="qNfc9r8m6Vnsijnfa4ap-44" edge="1">
          <mxGeometry relative="1" as="geometry" />
        </mxCell>
        <mxCell id="qNfc9r8m6Vnsijnfa4ap-30" value="&lt;div&gt;Integration Layer &amp;amp; MCP Server&lt;/div&gt;" style="rounded=1;whiteSpace=wrap;html=1;" parent="1" vertex="1">
          <mxGeometry x="95" y="910" width="310" height="60" as="geometry" />
        </mxCell>
        <mxCell id="qNfc9r8m6Vnsijnfa4ap-35" value="&lt;div&gt;Knowledge Layer&lt;/div&gt;&lt;div&gt;&lt;br&gt;&lt;/div&gt;&lt;div&gt;&lt;br&gt;&lt;/div&gt;&lt;div&gt;&lt;br&gt;&lt;/div&gt;&lt;div&gt;&lt;br&gt;&lt;/div&gt;&lt;div&gt;&lt;br&gt;&lt;/div&gt;&lt;div&gt;&lt;br&gt;&lt;/div&gt;&lt;div&gt;&lt;br&gt;&lt;/div&gt;&lt;div&gt;&lt;br&gt;&lt;/div&gt;&lt;div&gt;&lt;br&gt;&lt;/div&gt;&lt;div&gt;&lt;br&gt;&lt;/div&gt;" style="rounded=1;whiteSpace=wrap;html=1;" parent="1" vertex="1">
          <mxGeometry x="95" y="450" width="180" height="170" as="geometry" />
        </mxCell>
        <mxCell id="qNfc9r8m6Vnsijnfa4ap-38" value="Source Bases" style="rounded=0;whiteSpace=wrap;html=1;" parent="1" vertex="1">
          <mxGeometry x="115" y="490" width="140" height="50" as="geometry" />
        </mxCell>
        <mxCell id="qNfc9r8m6Vnsijnfa4ap-39" value="Vector DBs" style="rounded=0;whiteSpace=wrap;html=1;" parent="1" vertex="1">
          <mxGeometry x="115" y="550" width="140" height="50" as="geometry" />
        </mxCell>
        <mxCell id="qNfc9r8m6Vnsijnfa4ap-46" style="edgeStyle=orthogonalEdgeStyle;rounded=0;orthogonalLoop=1;jettySize=auto;html=1;entryX=0.5;entryY=1;entryDx=0;entryDy=0;" parent="1" source="qNfc9r8m6Vnsijnfa4ap-44" target="qNfc9r8m6Vnsijnfa4ap-30" edge="1">
          <mxGeometry relative="1" as="geometry" />
        </mxCell>
        <mxCell id="qNfc9r8m6Vnsijnfa4ap-44" value="&lt;div&gt;External Tools&lt;/div&gt;" style="rounded=1;whiteSpace=wrap;html=1;" parent="1" vertex="1">
          <mxGeometry x="95" y="1010" width="310" height="60" as="geometry" />
        </mxCell>
        <mxCell id="bR4ImRQM_lHo-FGBlh7m-1" value="Registry Storage" style="rounded=0;whiteSpace=wrap;html=1;" parent="1" vertex="1">
          <mxGeometry x="550" y="620" width="140" height="50" as="geometry" />
        </mxCell>
        <mxCell id="bR4ImRQM_lHo-FGBlh7m-4" style="edgeStyle=orthogonalEdgeStyle;rounded=0;orthogonalLoop=1;jettySize=auto;html=1;entryX=0.75;entryY=0;entryDx=0;entryDy=0;exitX=1;exitY=0.5;exitDx=0;exitDy=0;" parent="1" source="bR4ImRQM_lHo-FGBlh7m-2" target="qNfc9r8m6Vnsijnfa4ap-2" edge="1">
          <mxGeometry relative="1" as="geometry">
            <Array as="points">
              <mxPoint x="700" y="338" />
              <mxPoint x="700" y="430" />
              <mxPoint x="665" y="430" />
            </Array>
          </mxGeometry>
        </mxCell>
        <mxCell id="bR4ImRQM_lHo-FGBlh7m-2" value="Agent Registry" style="rounded=0;whiteSpace=wrap;html=1;" parent="1" vertex="1">
          <mxGeometry x="540" y="320" width="130" height="35" as="geometry" />
        </mxCell>
        <mxCell id="bR4ImRQM_lHo-FGBlh7m-3" style="edgeStyle=orthogonalEdgeStyle;rounded=0;orthogonalLoop=1;jettySize=auto;html=1;entryX=1;entryY=0.75;entryDx=0;entryDy=0;startArrow=classic;startFill=1;exitX=0;exitY=0.5;exitDx=0;exitDy=0;" parent="1" source="bR4ImRQM_lHo-FGBlh7m-2" target="qNfc9r8m6Vnsijnfa4ap-11" edge="1">
          <mxGeometry relative="1" as="geometry">
            <mxPoint x="550" y="288" as="sourcePoint" />
            <mxPoint x="500" y="305" as="targetPoint" />
          </mxGeometry>
        </mxCell>
        <mxCell id="bR4ImRQM_lHo-FGBlh7m-6" style="edgeStyle=orthogonalEdgeStyle;rounded=0;orthogonalLoop=1;jettySize=auto;html=1;startArrow=classic;startFill=1;entryX=0.658;entryY=-0.006;entryDx=0;entryDy=0;entryPerimeter=0;" parent="1" source="qNfc9r8m6Vnsijnfa4ap-11" target="qNfc9r8m6Vnsijnfa4ap-15" edge="1">
          <mxGeometry relative="1" as="geometry">
            <mxPoint x="310" y="650" as="targetPoint" />
          </mxGeometry>
        </mxCell>
        <mxCell id="bR4ImRQM_lHo-FGBlh7m-7" style="edgeStyle=orthogonalEdgeStyle;rounded=0;orthogonalLoop=1;jettySize=auto;html=1;startArrow=classic;startFill=1;exitX=1;exitY=0.25;exitDx=0;exitDy=0;" parent="1" source="bR4ImRQM_lHo-FGBlh7m-2" edge="1">
          <mxGeometry relative="1" as="geometry">
            <mxPoint x="391" y="349" as="sourcePoint" />
            <mxPoint x="760" y="780" as="targetPoint" />
            <Array as="points">
              <mxPoint x="780" y="329" />
              <mxPoint x="780" y="780" />
            </Array>
          </mxGeometry>
        </mxCell>
        <mxCell id="ASmS1fR-pAxJk7bQfhLH-4" style="edgeStyle=orthogonalEdgeStyle;rounded=0;orthogonalLoop=1;jettySize=auto;html=1;entryX=0.5;entryY=0;entryDx=0;entryDy=0;exitX=0.25;exitY=1;exitDx=0;exitDy=0;startArrow=classic;startFill=1;" parent="1" source="ASmS1fR-pAxJk7bQfhLH-2" target="qNfc9r8m6Vnsijnfa4ap-16" edge="1">
          <mxGeometry relative="1" as="geometry">
            <Array as="points">
              <mxPoint x="213" y="770" />
              <mxPoint x="175" y="770" />
            </Array>
          </mxGeometry>
        </mxCell>
        <mxCell id="ASmS1fR-pAxJk7bQfhLH-5" value="" style="edgeStyle=orthogonalEdgeStyle;rounded=0;orthogonalLoop=1;jettySize=auto;html=1;exitX=0.5;exitY=0;exitDx=0;exitDy=0;" parent="1" source="qNfc9r8m6Vnsijnfa4ap-15" target="qNfc9r8m6Vnsijnfa4ap-35" edge="1">
          <mxGeometry relative="1" as="geometry" />
        </mxCell>
        <mxCell id="ASmS1fR-pAxJk7bQfhLH-2" value="Supervisor Agent" style="rounded=0;whiteSpace=wrap;html=1;" parent="1" vertex="1">
          <mxGeometry x="180" y="710" width="130" height="40" as="geometry" />
        </mxCell>
        <mxCell id="ASmS1fR-pAxJk7bQfhLH-3" style="edgeStyle=orthogonalEdgeStyle;rounded=0;orthogonalLoop=1;jettySize=auto;html=1;exitX=0.25;exitY=1;exitDx=0;exitDy=0;startArrow=classic;startFill=1;entryX=0.75;entryY=0;entryDx=0;entryDy=0;" parent="1" source="bR4ImRQM_lHo-FGBlh7m-2" target="qNfc9r8m6Vnsijnfa4ap-15" edge="1">
          <mxGeometry relative="1" as="geometry">
            <Array as="points">
              <mxPoint x="573" y="390" />
              <mxPoint x="490" y="390" />
              <mxPoint x="490" y="510" />
              <mxPoint x="333" y="510" />
              <mxPoint x="333" y="630" />
            </Array>
            <mxPoint x="420" y="349" as="sourcePoint" />
            <mxPoint x="360" y="630" as="targetPoint" />
          </mxGeometry>
        </mxCell>
        <mxCell id="ASmS1fR-pAxJk7bQfhLH-6" style="edgeStyle=orthogonalEdgeStyle;rounded=0;orthogonalLoop=1;jettySize=auto;html=1;exitX=0.75;exitY=1;exitDx=0;exitDy=0;startArrow=classic;startFill=1;" parent="1" source="ASmS1fR-pAxJk7bQfhLH-2" target="qNfc9r8m6Vnsijnfa4ap-17" edge="1">
          <mxGeometry relative="1" as="geometry">
            <mxPoint x="255" y="760" as="sourcePoint" />
            <mxPoint x="185" y="788" as="targetPoint" />
            <Array as="points">
              <mxPoint x="278" y="770" />
              <mxPoint x="320" y="770" />
            </Array>
          </mxGeometry>
        </mxCell>
        <mxCell id="ASmS1fR-pAxJk7bQfhLH-8" style="edgeStyle=orthogonalEdgeStyle;rounded=0;orthogonalLoop=1;jettySize=auto;html=1;exitX=1;exitY=0.5;exitDx=0;exitDy=0;startArrow=classic;startFill=1;dashed=1;entryX=0.5;entryY=0;entryDx=0;entryDy=0;" parent="1" source="ASmS1fR-pAxJk7bQfhLH-2" target="qNfc9r8m6Vnsijnfa4ap-18" edge="1">
          <mxGeometry relative="1" as="geometry">
            <mxPoint x="370" y="710" as="sourcePoint" />
            <mxPoint x="412" y="750" as="targetPoint" />
            <Array as="points">
              <mxPoint x="535" y="730" />
            </Array>
          </mxGeometry>
        </mxCell>
        <mxCell id="ASmS1fR-pAxJk7bQfhLH-10" style="edgeStyle=orthogonalEdgeStyle;rounded=0;orthogonalLoop=1;jettySize=auto;html=1;entryX=0.5;entryY=0;entryDx=0;entryDy=0;startArrow=classic;startFill=1;exitX=0.5;exitY=1;exitDx=0;exitDy=0;" parent="1" source="qNfc9r8m6Vnsijnfa4ap-12" target="bR4ImRQM_lHo-FGBlh7m-2" edge="1">
          <mxGeometry relative="1" as="geometry">
            <mxPoint x="550" y="288" as="sourcePoint" />
            <mxPoint x="500" y="305" as="targetPoint" />
          </mxGeometry>
        </mxCell>
        <mxCell id="ASmS1fR-pAxJk7bQfhLH-15" style="edgeStyle=orthogonalEdgeStyle;rounded=0;orthogonalLoop=1;jettySize=auto;html=1;exitX=0.5;exitY=1;exitDx=0;exitDy=0;entryX=0.5;entryY=0;entryDx=0;entryDy=0;dashed=1;" parent="1" source="ASmS1fR-pAxJk7bQfhLH-16" target="ASmS1fR-pAxJk7bQfhLH-18" edge="1">
          <mxGeometry relative="1" as="geometry" />
        </mxCell>
        <mxCell id="ASmS1fR-pAxJk7bQfhLH-16" value="&lt;div&gt;Integration Layer &amp;amp; MCP Server&lt;/div&gt;" style="rounded=1;whiteSpace=wrap;html=1;dashed=1;" parent="1" vertex="1">
          <mxGeometry x="455" y="910" width="310" height="60" as="geometry" />
        </mxCell>
        <mxCell id="ASmS1fR-pAxJk7bQfhLH-17" style="edgeStyle=orthogonalEdgeStyle;rounded=0;orthogonalLoop=1;jettySize=auto;html=1;entryX=0.5;entryY=1;entryDx=0;entryDy=0;dashed=1;" parent="1" source="ASmS1fR-pAxJk7bQfhLH-18" target="ASmS1fR-pAxJk7bQfhLH-16" edge="1">
          <mxGeometry relative="1" as="geometry" />
        </mxCell>
        <mxCell id="ASmS1fR-pAxJk7bQfhLH-18" value="&lt;div&gt;External Tools&lt;/div&gt;" style="rounded=1;whiteSpace=wrap;html=1;dashed=1;" parent="1" vertex="1">
          <mxGeometry x="455" y="1010" width="310" height="60" as="geometry" />
        </mxCell>
      </root>
    </mxGraphModel>
  </diagram>
  <diagram id="xI0OrfeFxay7y1rSk_Uc" name="Page-2">
    <mxGraphModel dx="1306" dy="1192" grid="1" gridSize="10" guides="1" tooltips="1" connect="1" arrows="1" fold="1" page="1" pageScale="1" pageWidth="850" pageHeight="1100" math="0" shadow="0">
      <root>
        <mxCell id="0" />
        <mxCell id="1" parent="0" />
        <mxCell id="3VR6_LkeDyn7RIn3MdFj-1" value="User" style="rounded=1;whiteSpace=wrap;html=1;" vertex="1" parent="1">
          <mxGeometry x="20" y="90" width="90" height="30" as="geometry" />
        </mxCell>
        <mxCell id="3VR6_LkeDyn7RIn3MdFj-2" value="Interface" style="rounded=1;whiteSpace=wrap;html=1;" vertex="1" parent="1">
          <mxGeometry x="140" y="90" width="90" height="30" as="geometry" />
        </mxCell>
        <mxCell id="3VR6_LkeDyn7RIn3MdFj-3" value="Orchestrator" style="rounded=1;whiteSpace=wrap;html=1;" vertex="1" parent="1">
          <mxGeometry x="260" y="90" width="90" height="30" as="geometry" />
        </mxCell>
        <mxCell id="3VR6_LkeDyn7RIn3MdFj-4" value="Classifier" style="rounded=1;whiteSpace=wrap;html=1;" vertex="1" parent="1">
          <mxGeometry x="380" y="90" width="90" height="30" as="geometry" />
        </mxCell>
        <mxCell id="3VR6_LkeDyn7RIn3MdFj-5" value="Agent Registry" style="rounded=1;whiteSpace=wrap;html=1;" vertex="1" parent="1">
          <mxGeometry x="500" y="90" width="90" height="30" as="geometry" />
        </mxCell>
        <mxCell id="3VR6_LkeDyn7RIn3MdFj-6" value="Storage" style="rounded=1;whiteSpace=wrap;html=1;" vertex="1" parent="1">
          <mxGeometry x="620" y="90" width="90" height="30" as="geometry" />
        </mxCell>
        <mxCell id="3VR6_LkeDyn7RIn3MdFj-7" value="Agent 1" style="rounded=1;whiteSpace=wrap;html=1;" vertex="1" parent="1">
          <mxGeometry x="740" y="90" width="90" height="30" as="geometry" />
        </mxCell>
        <mxCell id="3VR6_LkeDyn7RIn3MdFj-8" value="" style="endArrow=none;dashed=1;html=1;rounded=0;entryX=0.5;entryY=1;entryDx=0;entryDy=0;" edge="1" parent="1" source="3VR6_LkeDyn7RIn3MdFj-16" target="3VR6_LkeDyn7RIn3MdFj-1">
          <mxGeometry width="50" height="50" relative="1" as="geometry">
            <mxPoint x="60" y="1080" as="sourcePoint" />
            <mxPoint x="120" y="210" as="targetPoint" />
          </mxGeometry>
        </mxCell>
        <mxCell id="3VR6_LkeDyn7RIn3MdFj-9" value="" style="endArrow=none;dashed=1;html=1;rounded=0;entryX=0.5;entryY=1;entryDx=0;entryDy=0;" edge="1" parent="1" source="3VR6_LkeDyn7RIn3MdFj-18" target="3VR6_LkeDyn7RIn3MdFj-2">
          <mxGeometry width="50" height="50" relative="1" as="geometry">
            <mxPoint x="180" y="1080" as="sourcePoint" />
            <mxPoint x="185" y="120" as="targetPoint" />
          </mxGeometry>
        </mxCell>
        <mxCell id="3VR6_LkeDyn7RIn3MdFj-10" value="" style="endArrow=none;dashed=1;html=1;rounded=0;" edge="1" parent="1" source="3VR6_LkeDyn7RIn3MdFj-20" target="3VR6_LkeDyn7RIn3MdFj-3">
          <mxGeometry width="50" height="50" relative="1" as="geometry">
            <mxPoint x="300" y="1080" as="sourcePoint" />
            <mxPoint x="305" y="120" as="targetPoint" />
          </mxGeometry>
        </mxCell>
        <mxCell id="3VR6_LkeDyn7RIn3MdFj-11" value="" style="endArrow=none;dashed=1;html=1;rounded=0;" edge="1" parent="1" source="3VR6_LkeDyn7RIn3MdFj-28" target="3VR6_LkeDyn7RIn3MdFj-4">
          <mxGeometry width="50" height="50" relative="1" as="geometry">
            <mxPoint x="420" y="1080" as="sourcePoint" />
            <mxPoint x="425" y="120" as="targetPoint" />
          </mxGeometry>
        </mxCell>
        <mxCell id="3VR6_LkeDyn7RIn3MdFj-12" value="" style="endArrow=none;dashed=1;html=1;rounded=0;" edge="1" parent="1" source="3VR6_LkeDyn7RIn3MdFj-26" target="3VR6_LkeDyn7RIn3MdFj-5">
          <mxGeometry width="50" height="50" relative="1" as="geometry">
            <mxPoint x="540" y="1080" as="sourcePoint" />
            <mxPoint x="545" y="120" as="targetPoint" />
          </mxGeometry>
        </mxCell>
        <mxCell id="3VR6_LkeDyn7RIn3MdFj-13" value="" style="endArrow=none;dashed=1;html=1;rounded=0;" edge="1" parent="1" target="3VR6_LkeDyn7RIn3MdFj-6">
          <mxGeometry width="50" height="50" relative="1" as="geometry">
            <mxPoint x="660" y="1080" as="sourcePoint" />
            <mxPoint x="667.5" y="120" as="targetPoint" />
          </mxGeometry>
        </mxCell>
        <mxCell id="3VR6_LkeDyn7RIn3MdFj-14" value="" style="endArrow=none;dashed=1;html=1;rounded=0;" edge="1" parent="1" target="3VR6_LkeDyn7RIn3MdFj-7">
          <mxGeometry width="50" height="50" relative="1" as="geometry">
            <mxPoint x="780" y="1080" as="sourcePoint" />
            <mxPoint x="785" y="120" as="targetPoint" />
          </mxGeometry>
        </mxCell>
        <mxCell id="3VR6_LkeDyn7RIn3MdFj-17" value="" style="endArrow=none;dashed=1;html=1;rounded=0;entryX=0.5;entryY=1;entryDx=0;entryDy=0;" edge="1" parent="1" target="3VR6_LkeDyn7RIn3MdFj-16">
          <mxGeometry width="50" height="50" relative="1" as="geometry">
            <mxPoint x="60" y="1080" as="sourcePoint" />
            <mxPoint x="65" y="120" as="targetPoint" />
          </mxGeometry>
        </mxCell>
        <mxCell id="3VR6_LkeDyn7RIn3MdFj-16" value="" style="rounded=0;whiteSpace=wrap;html=1;" vertex="1" parent="1">
          <mxGeometry x="55" y="140" width="20" height="30" as="geometry" />
        </mxCell>
        <mxCell id="3VR6_LkeDyn7RIn3MdFj-19" value="" style="endArrow=none;dashed=1;html=1;rounded=0;entryX=0.5;entryY=1;entryDx=0;entryDy=0;" edge="1" parent="1" target="3VR6_LkeDyn7RIn3MdFj-18">
          <mxGeometry width="50" height="50" relative="1" as="geometry">
            <mxPoint x="180" y="1080" as="sourcePoint" />
            <mxPoint x="185" y="120" as="targetPoint" />
          </mxGeometry>
        </mxCell>
        <mxCell id="3VR6_LkeDyn7RIn3MdFj-18" value="" style="rounded=0;whiteSpace=wrap;html=1;" vertex="1" parent="1">
          <mxGeometry x="175" y="147" width="20" height="33" as="geometry" />
        </mxCell>
        <mxCell id="3VR6_LkeDyn7RIn3MdFj-21" value="" style="endArrow=none;dashed=1;html=1;rounded=0;" edge="1" parent="1" source="3VR6_LkeDyn7RIn3MdFj-22" target="3VR6_LkeDyn7RIn3MdFj-20">
          <mxGeometry width="50" height="50" relative="1" as="geometry">
            <mxPoint x="300" y="1073" as="sourcePoint" />
            <mxPoint x="305" y="113" as="targetPoint" />
          </mxGeometry>
        </mxCell>
        <mxCell id="3VR6_LkeDyn7RIn3MdFj-20" value="" style="rounded=0;whiteSpace=wrap;html=1;" vertex="1" parent="1">
          <mxGeometry x="295" y="165" width="20" height="30" as="geometry" />
        </mxCell>
        <mxCell id="3VR6_LkeDyn7RIn3MdFj-23" value="" style="endArrow=none;dashed=1;html=1;rounded=0;" edge="1" parent="1" source="3VR6_LkeDyn7RIn3MdFj-24" target="3VR6_LkeDyn7RIn3MdFj-22">
          <mxGeometry width="50" height="50" relative="1" as="geometry">
            <mxPoint x="300" y="1073" as="sourcePoint" />
            <mxPoint x="305" y="223" as="targetPoint" />
          </mxGeometry>
        </mxCell>
        <mxCell id="3VR6_LkeDyn7RIn3MdFj-22" value="" style="rounded=0;whiteSpace=wrap;html=1;" vertex="1" parent="1">
          <mxGeometry x="295" y="210" width="20" height="30" as="geometry" />
        </mxCell>
        <mxCell id="3VR6_LkeDyn7RIn3MdFj-25" value="" style="endArrow=none;dashed=1;html=1;rounded=0;" edge="1" parent="1" target="3VR6_LkeDyn7RIn3MdFj-24">
          <mxGeometry width="50" height="50" relative="1" as="geometry">
            <mxPoint x="300" y="1080" as="sourcePoint" />
            <mxPoint x="305" y="270" as="targetPoint" />
          </mxGeometry>
        </mxCell>
        <mxCell id="3VR6_LkeDyn7RIn3MdFj-24" value="" style="rounded=0;whiteSpace=wrap;html=1;" vertex="1" parent="1">
          <mxGeometry x="295" y="253" width="20" height="30" as="geometry" />
        </mxCell>
        <mxCell id="3VR6_LkeDyn7RIn3MdFj-27" value="" style="endArrow=none;dashed=1;html=1;rounded=0;" edge="1" parent="1" target="3VR6_LkeDyn7RIn3MdFj-26">
          <mxGeometry width="50" height="50" relative="1" as="geometry">
            <mxPoint x="540" y="1080" as="sourcePoint" />
            <mxPoint x="545" y="120" as="targetPoint" />
          </mxGeometry>
        </mxCell>
        <mxCell id="3VR6_LkeDyn7RIn3MdFj-26" value="" style="rounded=0;whiteSpace=wrap;html=1;" vertex="1" parent="1">
          <mxGeometry x="535" y="253" width="20" height="30" as="geometry" />
        </mxCell>
        <mxCell id="3VR6_LkeDyn7RIn3MdFj-29" value="" style="endArrow=none;dashed=1;html=1;rounded=0;" edge="1" parent="1" target="3VR6_LkeDyn7RIn3MdFj-28">
          <mxGeometry width="50" height="50" relative="1" as="geometry">
            <mxPoint x="420" y="1080" as="sourcePoint" />
            <mxPoint x="425" y="120" as="targetPoint" />
          </mxGeometry>
        </mxCell>
        <mxCell id="3VR6_LkeDyn7RIn3MdFj-28" value="" style="rounded=0;whiteSpace=wrap;html=1;" vertex="1" parent="1">
          <mxGeometry x="415" y="293" width="20" height="50" as="geometry" />
        </mxCell>
        <mxCell id="3VR6_LkeDyn7RIn3MdFj-30" value="" style="rounded=0;whiteSpace=wrap;html=1;" vertex="1" parent="1">
          <mxGeometry x="535" y="303" width="20" height="30" as="geometry" />
        </mxCell>
        <mxCell id="3VR6_LkeDyn7RIn3MdFj-32" value="" style="endArrow=classic;html=1;rounded=0;exitX=1;exitY=0.5;exitDx=0;exitDy=0;entryX=0;entryY=0.25;entryDx=0;entryDy=0;" edge="1" parent="1" source="3VR6_LkeDyn7RIn3MdFj-16" target="3VR6_LkeDyn7RIn3MdFj-18">
          <mxGeometry width="50" height="50" relative="1" as="geometry">
            <mxPoint x="400" y="530" as="sourcePoint" />
            <mxPoint x="450" y="480" as="targetPoint" />
          </mxGeometry>
        </mxCell>
        <mxCell id="3VR6_LkeDyn7RIn3MdFj-33" value="" style="endArrow=classic;html=1;rounded=0;exitX=1;exitY=0.75;exitDx=0;exitDy=0;entryX=0;entryY=0.25;entryDx=0;entryDy=0;" edge="1" parent="1" source="3VR6_LkeDyn7RIn3MdFj-18" target="3VR6_LkeDyn7RIn3MdFj-20">
          <mxGeometry width="50" height="50" relative="1" as="geometry">
            <mxPoint x="85" y="165" as="sourcePoint" />
            <mxPoint x="185" y="165" as="targetPoint" />
          </mxGeometry>
        </mxCell>
      </root>
    </mxGraphModel>
  </diagram>
</mxfile>
